<svg width="24" height="24" viewBox="0 0 24 24" fill="none" xmlns="http://www.w3.org/2000/svg">
<path d="M11 4.12132H6.8C5.11984 4.12132 4.27976 4.12132 3.63803 4.4483C3.07354 4.73592 2.6146 5.19486 2.32698 5.75935C2 6.40109 2 7.24116 2 8.92132V17.3213C2 19.0015 2 19.8416 2.32698 20.4833C2.6146 21.0478 3.07354 21.5067 3.63803 21.7943C4.27976 22.1213 5.11984 22.1213 6.8 22.1213H15.2C16.8802 22.1213 17.7202 22.1213 18.362 21.7943C18.9265 21.5067 19.3854 21.0478 19.673 20.4833C20 19.8416 20 19.0015 20 17.3213V13.1213M7.99997 16.1213H9.67452C10.1637 16.1213 10.4083 16.1213 10.6385 16.0661C10.8425 16.0171 11.0376 15.9363 11.2166 15.8266C11.4184 15.7029 11.5914 15.53 11.9373 15.1841L21.5 5.62132C22.3284 4.79289 22.3284 3.44975 21.5 2.62132C20.6716 1.79289 19.3284 1.79289 18.5 2.62132L8.93723 12.1841C8.59133 12.53 8.41838 12.7029 8.29469 12.9048C8.18504 13.0837 8.10423 13.2788 8.05523 13.4829C7.99997 13.713 7.99997 13.9576 7.99997 14.4468V16.1213Z" stroke="#27293F" stroke-width="2" stroke-linecap="round" stroke-linejoin="round"/>
</svg>
